/* XPM */
static char *_f78ff8115b7401bbdf324954cc566d1tKGQNcFD3I02NhVT[] = {
/* columns rows colors chars-per-pixel */
"64 64 38 1 ",
"  c #FFC744",
". c #FFCA46",
"X c #FFCD4A",
"o c #FFD24D",
"O c #FFD84F",
"+ c #FFD652",
"@ c #FFDA55",
"# c #FFDE5A",
"$ c #FFE057",
"% c #FFE35D",
"& c #FFE95F",
"* c #FFE661",
"= c #FFEB63",
"- c #FFEC63",
"; c #FFE864",
": c #FFEE66",
"> c #FFEB68",
", c #FFEF6B",
"< c #FFEF6C",
"1 c #FFF066",
"2 c #FFF06A",
"3 c #FFF46A",
"4 c #FFF16C",
"5 c #FFF46C",
"6 c #FFF96C",
"7 c #FFF86D",
"8 c #FFFA6F",
"9 c #FFF571",
"0 c #FFF772",
"q c #FFF973",
"w c #FFFC73",
"e c #FFFC74",
"r c #FFFF79",
"t c #FFFF7C",
"y c #FFFF81",
"u c #FFFF86",
"i c #FFFF8C",
"p c #FFFF96",
/* pixels */
"ryt=:=,5737$ +++%=@;@%@+%##o%eeww52=%+2r==:&#%%%;#%#:ti3ityptee0",
",,e52=:etr=@ @@#*@#@@#@%;#%@%q77*q;@**5qe,:%#;*;:%%+=::%;*&:4,*;",
">;24,,:==1&% %#;,##%;###;@%#+#wyuq:3:&&#2**%@*;#@*%+5q;%*&**;%%*",
"@%,*#*,*,22%o42,0,#@*%@&%#%*#@eqw7:q2=%*%;,=#*2&+*#2t2%+@+&:;++%",
",05=*5:,;4q%o**55;*%##%3%##@#@=&-w2%;45*,,4=##:q%*#@5::=*&:q,@#%",
"2-52;,,*<,=&o:%%**,##=*5%**#@#@;==*,%=*&%%*%#+@+;*%%;:5r:=q7=%@@",
"o+%+@@@X+%@%.+oo#+@+X+o#%+%@o+oo@@%#*@@&o++.Xooo+++o+@%&++@+ooXo",
"ye,@:7rtwrqqtttww2,2r3:&e0qrr2&*&2#ooo.%#:5er7qtyurr172:==oe2e;;",
"===+3:5*:72&%=*r=&,0-e,;2;;=%2:-q=++XX 2%re5:wyq1eewr13;=+@;&=2*",
"=:%@-22#&;,;#&==%@=;=5,,=,,*;,;*q2#++@o*=5qq=:eee55,:,=:=##@*#%#",
"%q@:5,%%#*&5@#%*+@=&=0:5:qq*0;,=23#+X+@%w11322005;:&*=&;&*%%2%;;",
"%%#*:&%%:#=4%*@*+*4r=;&4,;;*,*=e:&+#&@+*q35757=q27q4,*q57%@0:%*,",
",%@#2=23q*,%#++*@,=w@,&&%##%q&%%=:@+%&++-=ee7%;%#==;;*,:e%@:+%&o",
"0#;=eq:;&;,%;%%+*=5w&@##%@%##&&%=%%#&:%;5eq-&#%##0t2%%#57=@&:42%",
"r:5rt5:25;r=,:2%:2eyq&;5:22e404;5,<:252eru:25:q5;2wr22#==;,rrrt2",
"0q,,wq5%#:05%;&@**=%%%,q:=*q:22q=*;*,*&&2e2q=#:+%%=:;5@+@*#:52:*",
"4qr5yqrr,we=%;:o#%@%205e3*o%%&=e000,402rqe3r4+;,=%@@#=@;:,*%,%;;",
"4=:3-5qt&:2%;0q;*&;@%;%2w:@@=%&%*,,445:=2-&:2#2&=,=2%%#%*&@+%*,:",
"2:3==2:72%*=2::2%=;*=q:=:;=%;:*%42*4,=2,&%;:=%:%;;,#+&@;*&%@%2,2",
";::;%=&,&*;&;&&*%==;#&*%&*,q;5,q2=%&$*4=%=:-:@%*+@@+,*@&&%-=*25&",
"+.oX XXXoo+o+#+#;==&%#&#,++@@@oX+oo.XXXooooooXoo@@@+XXoX;@+ooo++",
",X;;&,1#%#@o4qq22rreqte5q7r7e2&57eqw22==q1q;==;:tytt:;q550rtw5w7",
"o+,%%==+%*#o::521272=:5tt2q=2;+;@@=:&4*=5@*+#%,&=:&:%#:=,,=5ew7w",
"@+;@+4=@##@o&75y%:=;=4eweq3::*@+%@%&=;q4&#,+@#&%%%%45&:=;*25yiw5",
"@%::%*%2%,qo+:12%:&=%152-et:*5,,=,%;+qe%o#=%*#&##%@+q:%&;4@2e:2e",
"&+%;*=q5,&=%%:2;e=&&5:==3erq=,%%;*%%;r=#:@==%@@%,*=&=*%&%5&-225:",
"&+&:4=:%*;*+%;2&5%@+*%:&q==150%#*&%%*&##:#=,**=%,=:2&%%%&=21331:",
"%@%&,:=o@%#XXXoX      X .   .   +#++.o@o%o+%ooooooo@+oo@*=%+ooXX",
"7eqet2&*,2etiuyw:=:e1wuy7257eereut2eeqeeye775q5e%rttit52yrteiutr",
"ruu%*@+%*;:112:=*+&72,4e&&2e:2q52e7325te$:0q,%22@eteqtq52==:2&=e",
"-r5&%%@#*:*&&;:;*+%==;2q1:555e22217re52=:*;&**e2@ewe:er025;q2::e",
"%:r#%@&%%#&%%%,#=oo#**2=22q2e532,2727=&5&%%&&#&%@%q5o2=2,==q:qew",
"=*@o**#;#,;&*<,0&@%*5;*;5q0q05&+*%q=5$%o;0:-:+&@#:rr5&%#=q2=5rq:",
"&#%+%;,=*,;:1:;%%;q2eqe=%:,4;:,4%;;,&%#+@%*2=%%3:3r2=*@=5e2*2=,;",
"+++o++@%++@%+%@@+&1;;%%oo+oo@o+*;%%*=%#%###:=++&e=:#%&::2#+%+@;*",
"@2=:;25yttr:e%=qw-7q%*51220ry7:,55t;req5554550=trireuueq@0=r750,",
"*,,2;4*e2we;,:*qtw57@%%q:=;=4,=#=&22:;2,:q,7r72u=:2;235+@557t2,4",
";,2;+#;r53745,,4e2;5o:2&%%%%,=;*%%*#*;44&;,2:qee5=4&&5=o@=:rq55:",
";:55@%qtew2eqq&ew:*=%:2:###@@*:=#%%+%;55,%*52ee52&3:52=%o#&5:&2:",
"&&*;@%**=5::&:&que1w;7:,%++%#=2,*,:+*=;*,*:2>4q:&=1:&w5:#%=52%&;",
"=:=&+%;@5,:&:2qe,:&-#225%%*##*q#**2@&&:4:;,&*5e15rrrut:@+=eer*;+",
"=:&=+#%+@+&@0;%*,=*X#=qr=%;;*;##%*;@:=:=:&%%%*47&5;0%77%@:2r3==*",
"2#ry55e:e,7q=ryyiy5;>ey3u;#+oo Xoo+X@+++@XXXXooo@qreruy7,45&%2=;",
"=;:t2we5tyr1*tyr3ry:&:;=-25*+23&ete7%23uwewe&q23:euurytr%+; :,25",
"eX@@,2qt==:e@4==&=&%:%#*#@;e+*4qqty5;35:%-7ie5:2#2=O;2*+=2% 24;;",
":+=orq5%%::&o&=,#%+##*%@#@*@+;,*tqe52::2:eru=7q5@%&%;=;#%==X24=,",
"&#;5,0:#=2:5X2,%#+@%@&%@+#%++@%*e555,qr57err45:2o*2*,*=@%=% q=22",
"2%%&5q:;:=;qX;&##%;=%=@%@;,o+%:12:=;;4,0r51%e:2&:%:#%&eq%;=.q;5e",
"2,@2:*:r5%%;@:%%&;:q=;=#o#*+*::eq=&:=:;,3552%5&2%=,#;;##;%:o=%=#",
"@#@+*%%:=+#@X#%@#%%&#@%o+++o0;%%#=@#@##+#;5=q:&;o####%+#+@@X++@+",
"0;2eq227*;=%,=7=,*::;%=5e4;*:,;,X**%#,%#:25:4:;%@=15202t55::22:=",
"q,52y5,:2:;2;=1=:-%=,;3r3w-tw22;o=*,;,=:5w3e,2:@&#*t,51;==:5qe2&",
",;:,uuq;;5,2%*12;7&%=*,@:q:3,:5;+,,>;%,q=e3q4*4#=#%=%:2@%%%4,7=:",
"o&q2:722:e5,4e24222=eq:y&7&#@%*%+;=q05;q0&50y2&+;*##@#%@%,,;25=*",
"#*,q=52522544etr%2:=2,%5155*##=++::,05;***055=4#;;;*#@%#**%#*:*,",
"&=5&=%:-&;q44=7:>::5=;#%e&*;#%#%@5=;;,#&;@;&=,;%*&%#%=%%%*%@#:*=",
"52;;==e;%@4#;&&==q-2##%+%==5+:*:+@@o#=2**=%&:&@*%*2:2e2;,#@++*#*",
"%%%#%&=+##=%#%%+%&+@+++X++@%%@+oo++oXX+#@%++XX+X+@&&#*=@@+++o+oo",
"=2q52=%%@=104+@&%:=&%%;q2&&===2=2:#542&e3:r:=%*%52;5&=:&&%;=32&:",
"4=t5:%#%o5=%##&q37q2;;57q7twqety-,#qq55r75:5%&r5w5:17=:;52=euuwr",
"%:5@*&#*+==*%;:y=552523ye2:2::====*e5@:3%%2;,&123eu7t2:;=;=5ut3q",
"%*##@*=:+&:e2&=&12*%r32rrtr745;,7=#%%22%%%;=;+=:7-w2325=:eeqrtt1",
"%###@,2=.+:e=%2@=-=;2:=5eeeer3=,,:%#%::2;&@=@+%:e:q3::52:5e%qq23",
"2;&#**,*o=@-5*,,;2,4@+:0e:=7t2;*,:*%::2=#:+&%&,:5q&%5;:5@:52=q25"
};
