/* XPM */
static char * east_wall_xpm[] = {
/* columns rows colors chars-per-pixel */
"64 64 18 1 ",
"  c #7A4300",
". c #7A4700",
"X c #7A4A00",
"o c #7A4C00",
"O c #7A5300",
"+ c #7A5400",
"@ c #7A5A00",
"# c #7A5E00",
"$ c #7A6300",
"% c #7A6600",
"& c #7A6A00",
"* c #7A6C00",
"= c #7A7000",
"- c #7A7700",
"; c #7A7A00",
": c #7A7A06",
"> c #7A7A08",
", c #7A7A11",
/* pixels */
";;;%&%&===-# OOO#%@%+#O+@@@o#;;-;=*%#+*;%%%$@@##%+#@&;:=:;;,;;-=",
"&&-*&%&;;;%@.+O@#+@O+@+#%@#+#-=-$-%@##==;&&#@%$%&#@O$&&#%$#&*&$$",
"%$&*&&%%%&$#.#+%&@@#%@@@$+#@O@;;;=&*&$#@&#$#+$%@+##O=-%#$#$$%#@$",
"+#&$@$&$&**$o*&&=&@+##+$#@@$@+;---&=*$#$@%&%@$*#+$+&;*@O+O$&%+O#",
"&==%$*%&%*-#o#$*=%$@@@#*@@@+@+%$&;&#%*=$%%*$+@&-#$@+=%&%$$&-&@@@",
"*%=*%&&$&&$#o&#@$$&@@%$=#$$@+@+%%$$&#$$#####@OO+%$##%&=;%%--$#++",
"oo@O+++XO#+#.OOo@O+oXoO@@O@+oOoo++#@$O+#OO+XXoOo+++OO+@$OO+OXXXX",
";-&+&=;;;;--;;;--*&&;*&#;=-;;&#$$*@Xoo.#@&=;;--;;;;;&=*%%%o;*-%%",
"%$%O*&=$&=&$#%$;%$&=%;&%&$%%#*%%-%OOXX.&$;;=&;;-*;--;**%$O+%$%&$",
"%&#+%*&@#$%%@$%%@+$%%*&&$&&$%&%$-*@Oo+o$%=--%&;;;==&%&%%%@+@$@#+",
"@-+&=&#@@$$*++#$O+%$%=%=%--$=$&$**@OXO+#;*****===%%#$$$$$$#@*#%%",
"##@$&$#@&@%*#$+$O$*;%%#*&%%$&$%;&$O+#+O$-*=-=-%-&=-*&$===@+*&@$%",
"%#+@*%**-$&#@OO$+&$;@&##@@@@-$##%&+o##OO%%;;=#%#@$%$%$&&;#+%o##o",
"=+%%--&%#%&#%#@O$%=-#+@+@O@+@#$@$#@@$&#%=;-%$+#@@=;*##+=-%+$&*&#",
";%=;;=&*=%;%&&*#&*-;-$%*&**;*=*%=&&%*=&;;;%*=%==%*-;*&@$%%&;;;;*",
"=-&&--=#@&==#%$@#$$###&-&$$-&&*-%$$$%$#$*;*-$@%O@#%&%*+O+$@&**%#",
"&=;=;-;;%-;%@%%o+@+#&==-=$o##$%-***%&=*;-;=;*o%&$@++@$+%%&$#&#%%",
"*%&*&=-;%&*#%==$$#%+#%#*-&++$###$%%&&=&%*%$&*@*$%&%&##@#$#+O##&%",
"&%=%%&&-*##$&&&&#$%$%-%$%%%#%%$#**$*&%*&$#%%%@%#%%&@O#@$$##+#&&&",
"%%&%#%$&#$%$%$$$#%%%@$$@#$&=%=&-*$@$@$*%#%&&&+##O+@O&$+#$@&%$&*$",
"o.oX.XXXooOoO@O@%%$##@#@&+O+++XXOoX.XXXoXoOoXXXX+O+OXXXX%+OOoXOO",
"&X%%$&&@#@+O*--**;;;-;;=--;=;*$=-;-;**$%-&-%%%%&;;;;&$-===;;-=;-",
"oO&@#$$O##@o&&=&&*=*%&=;;*-%*%O%@+%%$*$%=+$O+#&#%&$&#@%%&&%=;;-;",
"+O%+o*$+@@@o#==;#&%%%*;;;-=&&#+O@+#$%%-*$+&O+@###@#**#%%%$**;>;=",
"+#%&#$#&#&-OO&&*#&$$#&**&;;&$=&%%&@%O-;@o+%@$+#@@@+O-&##$*@*;%*;",
"$O@%$%==&#%##&*%;%$#*&%%*;;-%&##%$##%;%+&+$%#++@&$$#$$###*$&**=&",
"$O#%*%&##$$O#%*#=#+o$#&#-$$&==@+###@#$@@&@%&$#$#&%&*$@###$&***&&",
"#+##%&$o+@@XX.X...   .X.X .... .o@OO.X+o#XO@ooXoXoo+ooX+$$@+ooX.",
"-;-;;*$$&&;;::;;&%&;*-;;-*==;;;;;;&;;-;;;;=-*-=;#;;;>;=*;;;;:;;;",
";;;#$++#$%&&&*&$$O#-*&*;%$*;&*-=*;-=*=;;#&=-%@**+;;;-;==*$$%*$%;",
"%;=$#@+@$%$$$%&%#o@%%$&=&&===-****-;;=*%&$%$$$;&+;-;&;;=*=%-&&&;",
"$&;@#+###@##@#&@%oX@$$&%*&-&-=**&*=*-%$=$#@$#@$#+#==o*$&&%$-&-;;",
"%$+o#$@$@&%$$&&=$+@$*%$$=-=-==$+$#=%=@@O%=&&&O%@@%;;=#@@%=&$=;-%",
"$@#O#%&%$&%%&%%#@%-&;--$#&&*%&&*#$%&$#@O+##*%##=&*;*$$@%=;*$&%&%",
"ooOooO+#+++#+#@+O#&%%#$OOOXo+oO$%##$$#+@+@+%%O+$-$&@#$&&*@O#++%#",
"@&%%%*=;;;;&;#%--&--#$=***=;;-&%*=;%;;-===**==$;;:;-;;;-+=%;-==&",
"$&&&$*$;*;;%&&$-;;*-O@#-%%%%*&$@$$&*%%*&&-&=;-*;%%&%*==OO=*-;*&&",
"%&*%O+%;*==*=&&*;*%=o&*$####&%%$##$@$$**$%&*&-;;=%*$#=$o+$&;-=*%",
"%&*=O#-;-;*---$;-%$%#&*&@@+++$%$+##O#%*=%#$=*;;=*$=&=*%@X@$*&$*&",
"$#$%+#$#%=&%$&$-:;&;%=&&#OO@+$&&$&&O$%%$&$&*%*-&$%&&$;=%@#%=&#$$",
"$&%#O#%+*&&$&*=-&&#%@&*=##$@+$-@$$*@$$&*%%&#$=-*=;;;;;&+O%;;;$%+",
"%%$$O@@O+o#+=$#$&$#X+%=;%@%%$%@+#$%+&%&%&##@##*=$=%=$=-#+%&;*%%#",
"*@;;**;&;&==%;;;:;=%%;;=;$@Ooo.XooOX+OOO+..XXXoo+-;;;;;=&*=$#*$%",
"%%&;&-;=;;;&$;;;=;;&$&%%%&*$+&=$;;;=#&=;-;;;%-**&;::;;;;@O%.&&*=",
";X++&*-;%$%;@*%%$$$#%#@$++$-O$*--;;=%==%#%-:;=&*@*%O%&$O$&#.**$$",
"&O$O;-=#@%&$o$%&@#+@@$#+@+$+O$&$;-;=*&&*%;;;%-==+#$#%$%@#%%X&*$&",
"$@%=&=&@%&%=X*&#@O+@+$#+O@#OoO#$-==*%-;=-;;;*=&*O$*$&$%+#%#.=%&&",
"*##$=-&%%$%-.%#++#%$#$+@O%&Xo#%**&%%$*&=;=*#;&&$&@%+#$-=$$%X-%*-",
"*&+*&$&;*@#%+&##$%%-%%$+o@$o$%&;-$$&%&%%===&#=$*#%%@%$@@%@&o%@$@",
"+@OO$##&%O++X@@+@##$@+@XOoOo=%@#@%+@+@+O@%=%=%#%o+@+@@o+O++XOO@O",
"=%*;-**-$%%#&%-$&$&&%@%=-*%$&&%%.$##@&#@%*=&*&%#+%*=*=&;==%%**&%",
"-&=*;=&%*%%*%%&%&&#%&%*;=;&;;**%o$$%%&$&*-*;&&&+#@$;&*&%%$%*-;*%",
"%%%&;;-%%*&*#$**%-$#%$&+&-&*&%=%o%%%%@&-$;=-*$*@%+#%#%*+###*&-%&",
"o$-*&-**&-=&*-***&&$--&;$-$+O#$#O%$==*$==$==;&$O$$@@+@#+#%&%*=%#",
"@$&-%*&=*&***;;;@&&%&&#=&==$+@$OO&&&==%#$$=*=$*@%%%#@+#@$$#@$&$&",
"$%=$%#%%$$-&*%=&%%&*$%@#;$$%@#@#+*%%%&@$$+$$%&%@$$@@#%###$#O@&$%",
"**%%%%;%#+*+%$$%%-%&@@#O@$$=+&$&O@+o@$&$$$#%&#+$#$&%&-&%%+OOO$@$",
"#@@@##$+@@$#@##+#$++OOOXOOO@#OOooOOo.XO@+#OOXXOXO+#$+$$++OoOoOXo",
"%&-=*%@@+%&=*++$#%%$##%=*$$%%$&%*&@***$;=&;&$#$#=*%=#%&#$#%%*&$&",
"*%;=&#@#O=%#@@$-*=-&%%=--=;;-;;;%&@--==;;=&=#$;=-=&*=%&%=*%;::-;",
"#&=O#$@#O%$$#%%;%==*=**;;*&&&%$%%%$;=@&=@#*%&$**=;;-;*&%%%$=;;=-",
"#$@@+$%&o$&;&$$#&*$#;**;;;;-*=%&=%@##**##@%$%O$%=%-*=*=%&;;-;;;*",
"#@+@+&*%.O&;$#&O%&$%*%%=;;-;;=%&&&#@#&&*%#@%@O@&;%-=%&*&&*;#=-**",
"*%$+$$&$X%@&=$%&%*&*+O%=;&%=;*%$&%$#&&*%@&+###&&=-$#*%&*+%=*%-*="
};
