/* XPM */
static char *_north_wall_xpm[] = {
/* columns rows colors chars-per-pixel */
"64 64 40 1 ",
"  c #000907",
". c #000708",
"X c #000B0D",
"o c #000E12",
"O c #001215",
"+ c #00151B",
"@ c #00191E",
"# c #001720",
"$ c #001C24",
"% c #001E29",
"& c #002027",
"* c #00202A",
"= c #00242B",
"- c #00222E",
"; c #00242E",
": c #002230",
"> c #002431",
", c #002734",
"< c #002832",
"1 c #002837",
"2 c #002C35",
"3 c #002738",
"4 c #002B39",
"5 c #002C3A",
"6 c #002B3C",
"7 c #002F3E",
"8 c #00303E",
"9 c #002F41",
"0 c #003041",
"q c #003443",
"w c #003346",
"e c #003445",
"r c #003846",
"t c #003448",
"y c #00384B",
"u c #003A4C",
"i c #003B51",
"p c #003D51",
"a c #004252",
"s c #00445B",
/* pixels */
"7w0**$->1<<@ OOO@&@%+$O+$++O$7815<;$$O;7$%*$$$$$%+$$*0p;i0es0543",
"-:4>-$-500&+ +O@$++O+$+@%+$+$1<<$4*+$$>15--@+%$**$$O$*-@*$$->-$%",
"-%->--*%$*$@X$+--+$$-$+@%+$+O@2ry1->*$$@:$$$+$*++$$O>1%$$$$$%$$%",
"+$-$$$-$->;$o>:-1-$+$$+$$+$$++7111*1>%$$$-:%$%>$O$+-0>$O+O$-%+O$",
"-1,$$>--->1@o$$>,%$@++$>@@$+++$$*5-$%>>$-->$++-4$$++1**%$$*4-++$",
";*<;*--$:-$$o-$@$$-+$$$,$%$++@+*$%$:$%$$$$$$+OO+%$$$**>7*%11$$++",
"oO$O+++oO$+@XOOO+O+ooOO#@O$+OOOO++$$$O+$OO+XXoOO++OOO+@$OO+Ooooo",
"e4-+-<00274100044;--8;*$5,408-$$$>+oooX$@*>5711qey88*<;*$$o5;4%%",
"$$$O;*>$*1:$$$$8&$-,*7-*-%%$$>*&1&OOXX :$87<*5e1;5410=>*$O+*$%:$",
"$*$+&;:+$%-*@$%$$+$**>:-$--$%--$1;#OO+o$$>11$*555>>-*-*-$+++%$$+",
"$4+-<-$$+%$>++$$O+$$$1-,-14$,%-$;;+OoO+$5==>;;11<%*$$$$%$$$$;$%-",
"$$+$*$@$-+%>$$+$O$>8$*$>-%%$:$&7-$O+$+O$1>><<<%4>11>-$1><@+,*$$-",
"-$+@;&;;1$-$+OO$+-$5+-$$$+$@1$@$&*+O$$OO*$78<$%$+$$%*$-*5@+*O$$o",
"1+%$41**$%-$%$$O$%>4$+@+$O$+$$$$$$$$$*$%<54&$+$$+19;$$+,<$+$*>-$",
"0*,70>*;>*7%-*>$-;6t4$*,->;7>,>*>-:*;>-58y-;>*1>%>48;:+%%*:8880;",
"14--44>$$-,<$*$+$$$$$$-4*$$1*-;1$%%$-$$$>5;1%#*O@$**%>+O+$$->;*$",
":47<e409:47*$-*o+$+$-4,4>$O$$$%4,,,-:,;015>8>O*-$$++$$+%--%$-$-%",
">%*;*,10$*;$-,1%$$%+$%$;1*++$$$$$--::>**;&$*>+>$%-$-$@@$%$+O$$-*",
":*;$*--1;$$$-**:$$*$%1-%**%$**$$>>$,-*;-$$**$$-$*%-@O$+%$$$+$---",
"%-*%$%$-$$%$%$$$$$$-+$$$$$-1*1-1;$$$@$>$@$**-+$$O++O-$+$$@*&$->$",
"oXoXXXooooOoO+O+*$$$$@$$-+O+++oXOOXXoXXoooOOoXoo+O+OoooX%+OOooOO",
"-o%*$--+@$+O>11;;8851w51117<5;$><512;>$&4-4*$%*-0te0*%4<>,704>21",
"oO-@$%$O$$+O**>--;1;%->00;1&>%O%++%*$>$$<+$O+$-$$-$*$+*&--%>55<5",
"+O-+O>$++@+o$<>w@-**$>5551>**$+O@+$$%%1>$+-O++$$$$$>>$*$%$>>ep1<",
"+$*-$%$-$-4OO*->$-$$$*>;*7w*$>--$-$%O45$O+$$$+$@+$+O4-$$%>@>5*;5",
"$O@*$$11-$%$$-;*5*$$>**$;571*-$$*$$$%7*+-+$*@++@-$$$$$$$$>$*;;>*",
"$O$*>&*@$%$O$*;$,@+O$$*$1$$*>1$+$$$$$$@@-+$-$$%$-**;$$$$$$-;;;-*",
"@+$$-*$O+$@XoooXXX    X X.     XO#OOXo+o$XO@ooooXOo+Ooo+$$@OOOoX",
"<7170>$$--8wpar5*$*8;1ue<;><5505ye;55155y5<<>1>5$8eqaq<;w705pte8",
"7yt@$++$$%---;-%$O$<;->7$$>5*>4,;51>;>05@*14-@>>+505101>;$$*>$$5",
"&8>$$$++$*$$$%-%$O$%%%:1;*,>>4>;;=185>>$*%%$$$5-+545*77,;<%4-**5",
"$*7+$+$$$@$$$$-@$oo$$%:%;-1-4>>;-;<;1&$<$$$$$@$$+$11O>$--&%4*175",
"$$+O$$+%$:%$$:-4$+@$>*$%>414,>$O$$4$>@@O*,***O$+#*77>$@@%1-%181*",
"$+$O$%-%$--*-**$$%1-514%$-->%*->$%*-$$$O+$$;%$$>*>7;$$+%>5;$-$--",
"OOOooO+$OO+@+$++O$-**$@OOOoO+OO$%$$$$$+@+++*%OO$4$-$$$**;+O@O+%$",
"@-$*->,eeq7-5$$41*<1$$>=;>18e1*->>0%774>,,>>,1$07p75tt54+,*01,,-",
"$---%>$5;25*-*%4q2>1O@$4*%%$>-%$$$-;-%>-*4-<81;y**:*;>>OO,><e>-:",
"%:>*O+*7>><>,-->5;*1O*;$$$$$-%%$$$$@$%>>$%-;*1751$>$$>$O+$*711>*",
"*->,O$1042;414$54*$*$*;-$++++$*$+$$O$%>>-$$>;55>>$>-<;*@o@$>-$;*",
"$$$*+$$$%>-*$*$1u7*5%1--$OO@+$--%-*O$$*%-%-;->1*$&**$5,*+$$<-@$%",
"%-%$O$%+>--$-;14--$*#-;,$$$@+$4$$$;+$$->-*-$$>4;>707ye*+O$757$%+",
"**$$O@$O+O$+,%$$-%$o+%19$$%%%%++$$*+*$*$*$$$$$><$,%1$<1@+*-7;$%$",
">@9t>>5-5-<1$7eepe,%-7t>t%+Ooo XOoOX+OOO+XXoooOO+1870yy<->,$$>$%",
"$**0-15<qt7*$0e0>8t*$**$*->$+->$507<@->u1558&1>>-5uu0ee7$O* *->>",
"5X++-;10$$*5+>*%$$$$-$$$++%4O%>110w>%>>*$*1p5<*;@>%O%-$O$-$ >>%%",
"-O$O91>$@*-$o$*-#$+$$%$+$+$+O%-$015>;*->*78u$11>+$$$%$*$$$$X->%:",
"$@*,-1*@$-*,X>-$+O+@+$$+O$$OOO$$5<<,-47>1500>>*;O$;$-$$+@%$ 1%--",
";$$$>1-**%%1X*$++$*$$$+$O--oO$-;;*$%%>-,0>=$5*-$*$-+$$44$%$X1*>4",
";-+>-$-7>$$*+*$$$**1%*$+o+$O$**74$$-%*%-<>,-$<$;$$-$%%@+%@-o$$%$",
"++OO$$$*$O++o+$+@$@$++$oOOOo,*@$@%+++$+O@%,$1*$-o+++$$O+O++XOO+O",
"1->74;;1$*$$-*1$-$**%$%>5>*$*-*-o%$$+-$@*;,->-%$+$;>>,-0<,**>;*$",
"1->;e>:*>**>*$**-*$$-%>0>5*q5>;%o%$-%-%-,4;5--*+$$$w->-*$$*>17;$",
"-**-ut4*%>-;$$;;*1$$%$-+-1*>-*>%O---%@-4%5>4>$>$%+$%$*;+$$$>-<$-",
"o$4;*1;;-4,->4;>>--$44*e$1$+O$$$O*%4,>%4,$11w-$O%$$+++@+$--->>%$",
"#$-1$>->;->>,709$-*%--$>*><$++%OO**-,>%$$$1>,$>$**%$++$$$$$+$*$-",
"$$,$$$**$%4:>$<*-**>$%$$7$$*+$@$+>*%%-@$%+%$$-*$$$@@$%$$$$$O+*$%",
">;**%$5%$+>+%$$%$4*-@@$O$%$<+-$-O++O$%:$$%$$-$+%$$-*-4-*-+OOO$@$",
"$@$+$$$+++$$$@$O$$O+OOOoOOO@$OOOoOOoXXO#+$OOoXOoO+$$+$%++OOOoOoO",
"$-4<;$$$+$-,>O+$$**$$$%1;$$$%$-$;-+>>;$7;*7*$@$$<;*>$$*$$$*%>-$*",
">%0>*$$$O>%$++$1>11-%%>11<q515qe&-+14<>82>*,$$0>1>*;1$**>;$7uu18",
"$*<O$$$$O*$$$%*e$>>;<;>e5;*;-*$*$%$5,+*;@$;*-$;;;7y10;**%*$>ye>1",
"$$+$+$*-O$*5-$$$*;$$7;;08001><*-1$+@$;;$$$*$*O$*1*4;>;>%*551800;",
"$++++-;*XO*5%$:O$*$%>*%>55487;%--*$+@**;%$@$+O@-5*1;**>-->5$11;>",
";%$+$$:%o*+*<$--*;-,+O-,5*$<0>*$-*$$**;$@*O$$$-*11$$>**,+-1;%1;<"
};
