/* XPM */
static char *_d793e101d3e4f38aba55e34cfad0cdbgtf5uK9X58IEdLIC[] = {
/* columns rows colors chars-per-pixel */
"64 64 24 1 ",
"  c #0B0B0B",
". c gray5",
"X c #131313",
"o c #161616",
"O c #191919",
"+ c gray12",
"@ c #202020",
"# c gray15",
"$ c gray16",
"% c gray18",
"& c #323232",
"* c #353535",
"= c gray22",
"- c gray24",
"; c #414141",
": c #464646",
"> c #494949",
", c gray30",
"< c #515151",
"1 c #565656",
"2 c #5A5A5A",
"3 c #5D5D5D",
"4 c gray38",
"5 c #656565",
/* pixels */
":,>&&%*=-==#.OOO#%@%+#++#@@o#::;;=*%#+*:%%&$##$$%@##&>2=2>,5>;;-",
"**;=*%*;>>%@.++#$@@+@#@#%@$+#-=-%-&@$$=-;*&#@%$&&##O%&&#&%$&=&%%",
"&%**&*&%%*%#X#@&&@#$&#@@%+#@O@;<1-&=&$$#*$%#+$&@@$#O=-%#$$%$&$#%",
"@$*$#$&$&**$o***=*#+$#@$#@#$@+:-;-&-*%$$#&*%#%*$+$@*>*#+@+$&%++$",
"&-=%$=&&&*-#o$$==%$#@@$*###@@+%$&;*$%*=%&&*%@@&-#%@+=&&%$$&-&@@#",
"*&=*&&&$**%#o&##%$*@#%%=#%$@+#@&%%$*#%$$$#$#@O++%%##&&=:&%--%#++",
"oO#+@@+X+$@#XOOO@++OoOO@#+#@OOOO++##$++$O++XXoOo+++O+@#$OO@Ooooo",
",;*+&=>>;:--,>>;-*&*>*&$;-;>>*$$$*@oooX##&=;:--,,1>>*=*&%%o;*;%%",
"%%%+*&=$&-*$$%$:%$&=&;*&*%%%#*&%-%OOXX.*$::=&;,-*:;;>*=&$O@%$%*$",
"%&#+%**@$%&&#$%%#@%&%=*&%&*%%*&$-*@OO+o%%=--%&;;:==*&*&&%@@@%##@",
"#-@&=*##@%$=@@#%O+%$%-&=&-;$=%&%*=@OoO+#;*****--=%&$$%$%%%##*#%&",
"##@$&$##&@%*$$@$O$*>%&$=&%%$*%%:&$O@$+O$-==-=-%-*=-*&$-==#@=&#$&",
"&#+#*%**-$*$@O+$+&%;@*$$#@##-$##%&+O#$O+%%::=#%$@%%%&$*&;#+&O$$O",
"-@%%;-&&$&&$%##O$%=-$+#@#+#@#$$#%$##$&$%=;-%$@##@-:*##@=-%@$&=*#",
">&=:>=&==&;%&&*#&*;,-$&=*=*:===&=**&*=*;:1&*=&-=&*;>**@%%&*:>:>*",
"=-&&-;=##*==$&$@$%%$##*-&%$-&**-%%%$&$#$*;*-%@&O#$%&%=@+@$#&=*&$",
"*-:=,;>:*;:%#&&o@#@$*-=;=$O#$$%;===&*-*>-:=:*O&*%#@@#%@%&&%#&#&%",
"*%&=&=->%&*#&=-%$$%@#&#*-&+@%#$$%&&**=&&*&%&=@*$%*%*$#@#%$@O$$*&",
"*&=%&*&-*#$%*&&*$%%%%-&%&&%#&&$$**%=&&**$$&&%#&$&%&#+$@%%##+$*&*",
"&&&%$%$*$$%$%$$%$%%&@$$#$$&-&=*;*%#$@$=%#%&&&@#$++@O&$@$$#&%$*=$",
"oXoX.XooooOo+@O#&%%$#@$#&++@++oX+OX.oXXoooOOoXoo++@+XXoX%+OOooOO",
"&X%%$&*@##+O*--**:>;-,;---:-;*$=-:-;**%%;*;%%%&&><,,&%-===:>;=;-",
"o+&##%%+$$@O&&=***-*%&=>>*-%=%O%@@%&$*%%=+$+@$*$%&$&$#&%**%=;;-;",
"@O&+O*%+@#@o$-=,#&&&%=;;:-=&&$+O#@$$%%-*$@&++@$$$##*=$&%%%==,2;=",
"+#&&#%$*#&-O+&**$&$%$*=*&;,&%=&&%&#%+-;#O@%#$@$#@#@+-*$$%*#=;&*;",
"$O#%$%-=*$%##**&;%$$=&&%*;:-&&##&$$$&:&@&@%%#@@#&$%$%%#$$=$&**=&",
"$+$&*%&#$%$O#&*$=#@O$$&$-$%&=-#@$$$#$$##&@%*$$%$*%&*$##$$%*****&",
"#@#$&&%o@##XXXoXX. ...X.X...X...O#++Xo+o#oO#ooooXoo+Ooo@%%#+oooX",
"=:-:>*$%&*:,23<;&%&:*-1,-*==;;>;1,*;;-;:<;=-=-=;#>,,4,=*,;>:2<,>",
":<<#$@+#%%&*&**%$+$-**=;%$*;&*-=*;-=*=>;#&=;&#**@;>:;>-=*%%&*%%;",
"%:=$##+@%&$$$%&%$O#%%%*-*&===;=***-::=*%&%%$$$;*+;;;&;:=*=%-*&&;",
"$&;@#@$$##$$##*#%oo#%%*%**-*;==*&*-*-%$=$##$$#$$+#--O*%*&%%-&-:;",
"%$@O$$@%#*%$$*&-$+#$=&%%=--;==%+%#-%=##O%=&&&+%@#&::=$##%-*%->-&",
"$@#O#%&%%&&&&&%$#%-*:-;%#&&*%&&=$%&*$##++$$*%##=&=:*%$@%=;*$*%*&",
"OOOoO+@#++@#+#@+O#*&&#$OO+oO+OO$%$#$%#@@@@@&%++$;%&#$$&&*@+#++%$",
"@*%&&*=<,,:&;#%-;&--#%=***-:<-&&==>&:;-===**==%::2;;,,;-+=%>-==&",
"%***%*%;*;;&*&%;,;==+##;&%%%**%#%$**&&**&-&=>-*<&&*%*==O+==-,***",
"%**&+@&:===*=&&*;*&=o&*$$$##&%%%#$$@$%==$%&*&-:;-%*$$=%O+%&:--=&",
"&&==+#->;;*;--$;;&%%$&*&#@@+@$&%@##+$%==&$$=*;:==$=*=*%#o@$=*%*&",
"%$%&+#%$%=*&$&$-1:*;%=&&#++#@%**%&&O%%&%*%&*&*-&$%&&$;=&@#%=*#$%",
"%&%$O#%+=*&%&*-;*&$%@**=##%@@$-#$$*@$$&=&&*$$=;*=:>:<,&@+%:::%%+",
"%&$%O@#++O$@=%#$&%$o@%-:%#%%%%@@#$&+&%&%&$$#$$*=$=%-$--#@&*:=%%$",
"*#:<==;&;*=-%:,,2,=%&;<=<%@+oo.XooOo+OOO+XXXXoOo+->:>1<-&*=$#*%%",
"%%&>*;:=,<:&$>,>=:<&$&&%&*=$+&=$;>:=#*=1-;;:%-==&;22><,:#+&.&**=",
";X@@&*->%%&;@*%%$%$#&##$@@%;+%=-->,=%==&#&-2:=&*@*%+%*%+%*$.**%%",
"&O%O:-=$#&&$o$%&##+##%#+#+$+O%&%>-;=*&&*&:>1%--=+#$$%%%##%%X*=%*",
"$@%=*-&#%*&=X*&$@+@#@$$@O#$OO+#%;===&-:=-:>>==&=O$*%&$%@#%#.-%**",
"*##$=-&&&%%-X&$@@#%%#%@#+&&oO#&**&%%%**=>=&$:&*$&#&@$$;-$%%X-%=;",
"*&+*&%&:=##&+&$$$&&-%&%@o@$o$&&:;%$&%&%&===*#=$*#%&#%%#@%#&o%#%#",
"@@+O$$#&%+@+X@#+###$@@#oOO+o=%###%+@+#@O#&=%-&$&o@@@##O@++@X++@+",
"-&*:-**-$&%$&&-%&%&&%#%=;=&$&*&&X%$#@&##&*=&*&%#+%*=*=*>==&&**&%",
"-&=*,=*&*&&*&%*&&&#%&%=>=;&,;**%o%%&%*%&=;=;&*&@$#%>*=*&%%&=-:*%",
"&&&*1,-&%=**$%**&-$$%$*+&-&=*&=%O&&&&#*;%;=;=$*#%@$%#&*@#$#**-%&",
"O$-*&-***;=**;*=***%;-&,$-$@+#%#O%%-==%-=$=->*$O%$#@+@#+#&&&*=%$",
"#$*-%=*=**===:>:#*&%*&#=*==$@@%+O&&*==%$$$-==%=#&&%$@+##$$#@$&$&",
"$%=$%$&&%%;**%=&&&&=%%##;$$%@$@#+=&%%&#$%@%$%&%#$$###%##$$#+@&$%",
"=*&&%%;%#+*@%%%%%-%*#@#+#%%=+&$&O@@O#%*$$%#$&$+$$$*&*;*&&@++O$@$",
"$##@$$%+@@%####+#$+@++OoOO+##+OooOOoXXO#@#+OXXOX+@$$@$%++OOOoOoO",
"%*-=*%##+%*=*+@$#&%$#$%-*$$%%%*%*&@=**$;*&:&%#$#=*&=$%&$$#%%=*$&",
"=%>=&##$O=%$@@$-=--*%&=--=,;-:,<&*@--==>-=&=$$:=-=&*-%&&=*%:12;:",
"#&=+$$#$O%%$#%&,%==*=*=<:*&*&&%&%%$;=@&=##*&&$**=:<->*&&%&%=1,=-",
"#%@#+$&*O$&;*$%$**%$:=*>>>>-*=&&-%@##**$##%%&O%&=%-*=*=%&;;->>>*",
"#@@@@**%X+&;%#*+%&%%*&%=:;;::=%**&#@#&&*&$@%@O#&;&-=&&=**=;$--*=",
"*%$@%%&%o%@&=$&&%*&=++&=;&%=>*&%&&$$&&*%#&+$#$*&--$#=&&=@&=*%-*="
};
