/* XPM */
static char  * north_wall_xpm[] = {
/* columns rows colors chars-per-pixel */
"64 64 84 1 ",
"  c #0E0D07",
". c #0F0D09",
"X c #130E07",
"o c #120E0A",
"O c #15120D",
"+ c #19140F",
"@ c #161411",
"# c #1A1612",
"$ c #1D1A15",
"% c #1E1C18",
"& c #211C16",
"* c #221E19",
"= c #242017",
"- c #26211C",
"; c #29241E",
": c #2D281F",
"> c #272420",
", c #2B2621",
"< c #2E2923",
"1 c #2F2B28",
"2 c #322C25",
"3 c #342E29",
"4 c #382F2B",
"5 c #353027",
"6 c #383127",
"7 c #36312A",
"8 c #3A332E",
"9 c #3A342C",
"0 c #3B342C",
"q c #3B342D",
"w c #38352F",
"e c #3C352F",
"r c #3E382E",
"t c #393430",
"y c #3B3630",
"u c #3B3631",
"i c #3C3430",
"p c #3F3931",
"a c #3E3933",
"s c #3F3A34",
"d c #40392F",
"f c #413A32",
"g c #433C33",
"h c #443E32",
"j c #423B34",
"k c #423D36",
"l c #443C37",
"z c #423B38",
"x c #433E38",
"c c #443F38",
"v c #454037",
"b c #464036",
"n c #474036",
"m c #484236",
"M c #464139",
"N c #484139",
"B c #4B443A",
"V c #4A443B",
"C c #4E473E",
"Z c #4E493E",
"A c #514A3E",
"S c #4D4740",
"D c #4E4940",
"F c #504941",
"G c #534C42",
"H c #534D42",
"J c #534C43",
"K c #544D46",
"L c #544E49",
"P c #565045",
"I c #575145",
"U c #595246",
"Y c #5A5446",
"T c #555149",
"R c #5B544A",
"E c #5B554B",
"W c #5E584E",
"Q c #5D5A51",
"! c #625C4F",
"~ c #625B51",
"^ c #635C51",
"/ c #666250",
"( c #6A6454",
") c #6D665B",
/* pixels */
"CKF6939fkfg;o$$$;5;3*,*=,-;#,CZmNg92,&9C3392,,<<3-,,9G^d~GI)GNNz",
"8iNpe39NFF5-o**;<--*-,-;3;<=,kgh2M6-<<plV98;-3266,,$269:6228p823",
"83eu8893392:O,-78-,<7,-;3*,-$;mYRk7p6<<;i22,*26;-<,$pn3,2<223<,2",
"*<82,<918ir<#uu9k9,*<,-2,-,<-*Cnml6ku3,2,7u3,2u<=2-9Dp,*-*<73**<",
"8lj32p787in:#2<ps3<;--<p;;,--*329N9<3pf277i2--7x,2;*k663<<6c8--,",
"96ge6872i83<#7,;229;,32j<2<;*;-623<u,32<<,2,-%**32,,69fC93nk2,**",
"#$,*--*@*<-;O&$$;&*$@$$>;&,-$$$$**,,<**<$**O+#$$**&&*-;2&&-$@###",
"KM9*8gFFmCclGGGNMe89Zr6<MjcFA9<22u-@##O,;9fVCllGIRZA9gr933#NeM33",
"332&r9p29lu2<32Z528j9V999332,i65n5$$OO.9<ZCg9NIleVNmG9f92$-6<3u2",
"29,*59u-2386;233,-366fi828923872k9>%$*#22pll39NVVff999682---3,,-",
",x-7g9,,-3<p--,2$*322k7s8lM<s383er-%#%*,M99p9rkkg39<<32322,,9,37",
",,-292;,9-3p<<-2$<iZ292p8332u25C82$-<*%<lffhgl3cukki72kfg;-j9,<7",
"7,*;r5rrk29<-$*<*92M;92<,-,;l<;,56*$,<$&63VZg<3<;2236<99V;*9&<<$",
"k-32Mk66<38,3,,$13fM<*;-,*>-,<<,2<,,26<3pMn5<-,,;kSr,,-jg3-29pe,",
"F9jVGf9df6V376u,8eVLx26sep9Vpsp6f8i9ef9MZR89p6kp3iNAeu-336iZZAGe",
"kx88MMp,,9jg<6<-222<,,9x92<l999k22328<<2pNek3>6&;<693f-&*2,9pe92",
"uxCgIMFSuNC6,77@-,-<9xsMf1$,223Mjjj8ijeDlVfZi$6e2,--,2-3783,8,73",
"i39d9jlF29e,7sk3<<3*<3,en6=-2,<<288iif96e629i-i23929,;;,3<-$<<96",
"i6r36e8le,22969i<2623l73663,992,ii2p86e922693,72638;&<-32<,*<e89",
"4863<329,2323<<2<227;<2,<<7k6k9mr2,<;<p2;2668-,<**-&72-<2;65<9p<",
"$O#OOO@@##$#&-$;622<,;<,9*%-**#O&$+o@OO####$#O##**-*@@@O3*$$##$$",
"9@36<99;:>=$unleeZAVlKNknlChVr<pnVlmei25N9n62368FRKG93MgfjVDMfml",
"#%8;,32*,<;$69feeel937fGFel5p3$3--362i22g-2&-<823829<;65993fNNhN",
"=%7*$u2--;;@<hfK:8693fNNVnf99<*$;-<233np2-8**-2<<,,pp26232pfK^mg",
"=,68,3<9,8x$&99i<823<9fe9VK92p8729,3&cN,$-2,<-<;-,-&x9<<3i;pN9eN",
"<$;6<2kk823,,9r9N62<p963rNVl69,,62,<3V6;8-26;--;722<22,<<p29rrf9",
"<&<6u56:232%,6e<j;-$2<92n229fk,-<<,,22;;9-292<3<969e2,,2<2errr99",
";-,2892#-,;O@@$@Oo .ooOoOXoXOooo$>*&O#*#,+%;####+##*$##*22;&###O",
"gVkVFi2289ZK~/YV926ZenWIhefgVNFNRK9NVkNVRVghflfV,ZII(IgrKVFV~RIA",
"CRR:2-*,23899e932&<ne9pV32iV6icjeVlfrpGV;6kM8:pi-VFVmFlfe229i23N",
"5Zp2<,=;26222373<&,333uk99jppMper9lZVfp3633<22N9*NNV9VVjef3ce99N",
"<6V-,-<<,;<<,,9;2##,22u399l9Mffe8ehel5<g2,,<<;2<*<lk$i3e953c9lCN",
"3<-$<<;3,u3<2u7x2*;1p623fckMjf2&2,c3f;;&6s666*2->6VCf<;;3k93kAl9",
"<-,$,3832876966<,3leVlM3<78u398i<3692,,&*<<93,<p8pVe32;3pM92e387",
"$$$#$&-,=&-;*<-*%<966,:$&&#$*$$<3<,<2,-;-;-73%&,M26,<<699;&;&*3<",
";e367ifUIGC7M,3cn9hn,2f9eikAUl98ffF3VMxpjjiusk2SVQMMLTMM*j6Fljj8",
"29993u2NemV9892MImfk%:<M9333i93,22er73i89c8gAldR69e3rff%*sfhKi9u",
"3ui6*-6Cffgij78iVe6k$6e2<<,,9332,<2;<3fp238e9kCNg3i<<f2#*29Clkp6",
"68fj*,lGNmeNlc<MM626<699,;-*-262-,,&<3pf8<2feNVfp2p9ge5:@;2f92e9",
"2226*,223f99262nWV9N3k77,**;-299389$2393827e8il925992Nf9-,2ge:23",
"373<$,3*p97289kM9826>99s<,2;-2x,<<9-228p769<2pMrfCFCRK9-*3CVC33*",
"3622%;,*-$<-j3,293<@-3kS2,3333--,<6*93937<<,<<pg<s3k2hk:-6eCr33<",
"i;SRppN8V9gk2VKI~Kj37VTpT3-&##oO#@$+*%$&*OO@@#$$=kZCGRRg7uj<,p23",
"336FemVhGRC9<FKFfAR929636ef2*9p2VFVg:efWnVVZ5lpf7V!!GUKC,*6o69if",
"N+--89nG326V-p63222,7,,2;*2M&3flnFKf3pf9:6h^Vg9e;u3&3e2&29,opi33",
"9$2$Snp,;972#269,,*,,3,*,*<*$382FlNp998i9CAW3llf=,<,336,,22O9p3u",
"<;7sek9;296sOp9<;**;-<<-&,<$$*,3Nggs7cVfnVZApf9r$192823;;3,Ok399",
"r,,2fl86633kO6<--,62,2-,*77@$,7ee9633i9sDf9:V9e26,7-<<Nc<33On6pM",
"97*u828Cf,,6*6<,299n362-#-<$<69CM2<73637gfj9<g29>28,33;-3:7#2,3,",
"--*$<,,62*-*@-,-;,:2;-,#$$*#s6;,;3*-*,-$;3j2k6<7#-;-,,$-&*-O**-*",
"k7iVM99k262<86l282993,3fNp626967@32,;8,;6ej8i83,-2efpseFgs78ie62",
"k8feKpu9i96i639689,383pZpN9GNie3#3283938jNdN8e9-2,2Gef96237fnCe3",
"7699WLM63f99<29e6l2<3<9*9k6f96f3%7883;9c3VfMp2u,3;,3,99-,<<i8h38",
"#2le9lee9Nj9iN9piee2Nx6K2l<;*,2,&63xsp3cj2kkG9<%3<,-=;;*,776ip3<",
";28n3fefeefisVFS,e63e7,p9fg2-;3&$988jp3222lpj2p,663<-*,,22,;<628",
"22j23<9923cui3g9866p33,<V226-<-,*f6338;23*32386,2<;;,3<,<<,*;9<3",
"fe6633V3,*i-32233M6e;;,*,32g*928$--$,3u223,27<*1<2e69Me98-*&&<;2",
"<;,;,<2*;-2,,;<&,<&=%*&@$$*;,%%##%$#OO%>-,*$@O$@*-<<-<3**$$%#&#$",
"3ecge2,,*39ju&-<,66<,<3k92233293e7-pie2Vr6C62;<,s96f<29<<,63re29",
"i3Ff9,,,$f3<;;2lfll933flngGNlVGU69-nxffAmf6j<<Dfnf9el399fe3CW!mZ",
",9s*2<;2$632,36K3ffrpefUVr9e893633<Vs;9d;,968<eedCRlGr96363fRKdl",
",2;,*<69$29Ne<2<9e2<VdeGAGDlig68k2-;,99<,,636$29k6Mrfef39NNnAGFe",
",;---896O&9V3,u*2623p63fVNNZCd3896,-:9993<;3-$;9V6kr69p99fN<llef",
"e3<-2282#6-9g<77698s*&7jN93gFi62762<9992;6&<,<99kl<<p66s*7ke3leg"
};
